<svg width="44.193359" height="39.184692" viewBox="0 0 44.1934 39.1847" fill="none" xmlns="http://www.w3.org/2000/svg" xmlns:xlink="http://www.w3.org/1999/xlink">
	<desc>
			Created with Pixso.
	</desc>
	<defs/>
	<path id="Vector" d="M35.325 3.28546C34.0735 2.76691 32.7321 2.5 31.3774 2.5C30.0228 2.5 28.6814 2.76691 27.4299 3.28546C26.1784 3.80402 25.0414 4.56409 24.0837 5.52216L22.0962 7.50964L20.1087 5.52216C18.1743 3.58777 15.5506 2.50098 12.8149 2.50098C10.0792 2.50098 7.4556 3.58777 5.52118 5.52216C3.58676 7.4566 2.5 10.0803 2.5 12.8159C2.5 15.5516 3.58676 18.1752 5.52118 20.1097L7.50867 22.0972L22.0962 36.6847L36.6837 22.0972L38.6712 20.1097C39.6293 19.152 40.3893 18.015 40.9079 16.7635C41.4265 15.512 41.6934 14.1706 41.6934 12.8159C41.6934 11.4612 41.4265 10.1199 40.9079 8.86841C40.3893 7.61688 39.6293 6.47986 38.6712 5.52216C37.7135 4.56409 36.5764 3.80402 35.325 3.28546Z" stroke="#FFFFFF" stroke-opacity="1.000000" stroke-width="5.000000" stroke-linejoin="round"/>
</svg>
